<?xml version="1.0" encoding="UTF-8"?>
<svg id="_레이어_2" data-name="레이어 2" xmlns="http://www.w3.org/2000/svg" viewBox="0 0 1141.55 187.13">
  <g id="_레이어_1-2" data-name="레이어 1">
    <g>
      <path d="M46.51,56.19v7.8c6.46-7.71,12.55-13.04,18.28-16s12.91-4.44,21.51-4.44c17.57,0,30.47,6.82,38.72,20.44,6.09-7.53,12.27-12.82,18.55-15.87,6.27-3.04,14.34-4.57,24.2-4.57s19.36,2.16,27.43,6.47c8.96,4.85,15.14,11.68,18.55,20.48,2.33,5.93,3.49,15.27,3.49,28.02v46.35c0,7.37.09,11.86.26,13.47.89,6.47,3.19,9.7,6.92,9.7,1.24,0,3.1-.31,5.59-.94,2.49-.62,4.35-.94,5.6-.94,6.21,0,9.32,2.69,9.32,8.06,0,6.28-3.59,9.41-10.76,9.41-2.69,0-6.77-.32-12.23-.94-5.47-.63-9.64-.94-12.5-.94-3.05,0-7.48.32-13.31.94-5.83.62-10.26.94-13.31.94-7.53,0-11.29-3.13-11.29-9.41,0-5.37,2.86-8.06,8.6-8.06.71,0,2.51.18,5.38.54,1.07.36,2.51.54,4.3.54,3.05,0,4.97-1.52,5.78-4.57.81-3.05,1.3-10.66,1.48-22.86v-34.15c0-12.37-.94-21.37-2.81-27.02-1.87-5.65-5.41-10.08-10.58-13.31-5.18-3.23-11.07-4.84-17.67-4.84-12.67,0-21.51,4.39-26.51,13.18-3.93,6.99-5.89,19.18-5.89,36.57v19.09c0,16.85.4,27.38,1.21,31.59.81,4.22,2.91,6.32,6.32,6.32,1.08,0,2.64-.17,4.71-.54,2.06-.36,3.63-.54,4.71-.54,2.51,0,4.62.84,6.32,2.52,1.7,1.68,2.55,3.75,2.55,6.22,0,5.83-4.22,8.74-12.64,8.74-2.69,0-6.68-.36-11.96-1.07-5.29-.72-9.28-1.07-11.97-1.07-3.76,0-7.89.36-12.37,1.07-4.48.72-8.43,1.07-11.83,1.07-7.35,0-11.02-3.04-11.02-9.14,0-5.55,2.69-8.33,8.06-8.33,1.97,0,3.5.25,4.57.75,2.51.76,4.39,1.13,5.65,1.13,4.3,0,6.54-4.59,6.72-13.78l.81-12.71v-39.18c0-15.67-2.11-26.57-6.32-32.7-4.22-6.12-11.7-9.19-22.45-9.19-11.83,0-20.88,4.32-27.16,12.97-5.2,7.03-7.79,19.28-7.79,36.75v35.94c0,7.21.08,11.44.27,12.7.71,6.12,2.68,9.18,5.92,9.18.89,0,2.77-.5,5.64-1.5.36,0,.89-.13,1.62-.38h1.88c6.99,0,10.49,2.96,10.49,8.87s-4.03,8.6-12.1,8.6c-3.05,0-6.82-.27-11.29-.81-6.09-.72-11.29-1.07-15.59-1.07-2.15,0-6.09.27-11.83.81-7.71.72-12.37,1.07-13.98,1.07-7.17,0-10.76-3.04-10.76-9.14,0-5.55,3.47-8.33,10.41-8.33h1.64c.73.18,1.28.27,1.64.27l6.85,1.34c.18.18.55.27,1.1.27,4.93,0,7.57-4.39,7.94-13.17v-56.46c0-15.24-.41-24.74-1.21-28.5-.81-3.76-3-5.64-6.59-5.64-.72,0-3.23.45-7.53,1.34-1.79.36-3.23.54-4.3.54-6.64,0-9.95-2.86-9.95-8.6,0-6.09,3.67-9.14,11.03-9.14,1.97,0,4.66.18,8.07.54,3.4.36,6.36.54,8.87.54h4.84l6.45-1.07h.81c4.3,0,6.45,2.6,6.45,7.79Z"/>
      <path d="M303.26,104.59v34.95c0,8.97.08,14.25.27,15.86.89,8.07,3.31,12.1,7.26,12.1.89,0,3.13-.44,6.72-1.34.89-.36,2.24-.54,4.03-.54,6.81,0,10.22,2.95,10.22,8.87,0,2.52-1.13,4.66-3.38,6.45-2.25,1.79-5.08,2.69-8.5,2.69-2.88,0-7.24-.4-13.08-1.21-5.84-.81-10.21-1.21-13.08-1.21-4.68,0-9.9.36-15.65,1.07-7.01.89-11.69,1.34-14.03,1.34-7.2,0-10.8-3.04-10.8-9.14s3.08-8.87,9.23-8.87c1.45,0,3.57.27,6.37.81,2.8.54,4.93.81,6.38.81,4.34,0,6.96-5.74,7.87-17.21v-68.83c-.91-11.29-3.62-16.94-8.14-16.94-1.45,0-3.49.32-6.11.94-2.62.63-4.56.94-5.83.94-6.51,0-9.77-2.86-9.77-8.6,0-6.09,3.94-9.14,11.83-9.14,3.41,0,5.82.09,7.26.27,5.74.72,9.42,1.07,11.03,1.07,1.43,0,3.63-.22,6.59-.67,2.96-.44,5.15-.67,6.58-.67,5.2,0,7.8,3.49,7.8,10.48,0,.72-.07,1.79-.22,3.23-.14,1.44-.21,2.51-.21,3.23-.15,1.44-.29,6.99-.43,16.67-.14,7.35-.21,14.88-.21,22.59ZM289.28,34.15c-4.13,0-7.66-1.48-10.62-4.44s-4.44-6.49-4.44-10.62,1.48-7.62,4.44-10.48,6.49-4.3,10.62-4.3,7.66,1.44,10.62,4.3,4.44,6.36,4.44,10.48-1.48,7.66-4.44,10.62-6.5,4.44-10.62,4.44Z"/>
      <path d="M389.44,70.33v83.48c.18,9.13,2.63,13.69,7.33,13.69,1.08,0,3.35-.44,6.79-1.34,2.17-.36,3.62-.54,4.34-.54,5.98,0,8.96,3.05,8.96,9.14s-3.66,8.87-10.99,8.87c-2.85,0-7.41-.36-13.66-1.07-6.25-.72-11.07-1.07-14.47-1.07-2.86,0-7.14.36-12.86,1.07-5.72.72-9.91,1.07-12.59,1.07h-1.34c-7.5,0-11.26-3.23-11.26-9.68,0-5.55,3.08-8.33,9.23-8.33h1.9c1.08.25,1.9.38,2.44.38,4.52,1,7.14,1.5,7.87,1.5,3.25,0,5.29-1.39,6.1-4.18.81-2.79,1.31-10.03,1.49-21.73l.27-18.89V32.86c-.18-5.39-.45-8.99-.81-10.8-1.26-4.13-3.76-6.2-7.53-6.2-.54,0-2.87.36-6.99,1.07-1.97.36-3.58.54-4.84.54-6.09,0-9.14-2.86-9.14-8.6s3.58-8.87,10.75-8.87c1.97,0,3.67.09,5.11.27l6.45.81c2.87.36,5.28.54,7.26.54,1.79,0,4.47-.27,8.06-.81,3.58-.54,6.27-.81,8.07-.81,4.12,0,6.18,2.6,6.18,7.79,0,1.79-.09,3.13-.27,4.02-1.26,13.79-1.88,33.29-1.88,58.52Z"/>
      <path d="M476.28,104.59v34.95c0,8.97.08,14.25.27,15.86.89,8.07,3.31,12.1,7.26,12.1.89,0,3.13-.44,6.72-1.34.89-.36,2.24-.54,4.03-.54,6.81,0,10.22,2.95,10.22,8.87,0,2.52-1.13,4.66-3.38,6.45-2.25,1.79-5.08,2.69-8.5,2.69-2.88,0-7.24-.4-13.08-1.21-5.84-.81-10.21-1.21-13.08-1.21-4.68,0-9.9.36-15.65,1.07-7.01.89-11.69,1.34-14.03,1.34-7.2,0-10.8-3.04-10.8-9.14s3.08-8.87,9.23-8.87c1.45,0,3.57.27,6.37.81,2.8.54,4.93.81,6.38.81,4.34,0,6.96-5.74,7.87-17.21v-68.83c-.91-11.29-3.62-16.94-8.14-16.94-1.45,0-3.49.32-6.11.94-2.62.63-4.56.94-5.83.94-6.51,0-9.77-2.86-9.77-8.6,0-6.09,3.94-9.14,11.83-9.14,3.41,0,5.82.09,7.26.27,5.74.72,9.42,1.07,11.03,1.07,1.43,0,3.63-.22,6.59-.67,2.96-.44,5.15-.67,6.58-.67,5.2,0,7.8,3.49,7.8,10.48,0,.72-.07,1.79-.22,3.23-.14,1.44-.21,2.51-.21,3.23-.15,1.44-.29,6.99-.43,16.67-.14,7.35-.21,14.88-.21,22.59ZM462.3,34.15c-4.13,0-7.66-1.48-10.62-4.44s-4.44-6.49-4.44-10.62,1.48-7.62,4.44-10.48,6.49-4.3,10.62-4.3,7.66,1.44,10.62,4.3,4.44,6.36,4.44,10.48-1.48,7.66-4.44,10.62-6.5,4.44-10.62,4.44Z"/>
      <path d="M559.84,56.19v7.8c6.46-7.71,12.55-13.04,18.28-16s12.91-4.44,21.51-4.44c17.57,0,30.47,6.82,38.72,20.44,6.09-7.53,12.27-12.82,18.55-15.87,6.27-3.04,14.34-4.57,24.2-4.57s19.36,2.16,27.43,6.47c8.96,4.85,15.14,11.68,18.55,20.48,2.33,5.93,3.49,15.27,3.49,28.02v46.35c0,7.37.09,11.86.26,13.47.89,6.47,3.19,9.7,6.92,9.7,1.24,0,3.1-.31,5.59-.94,2.49-.62,4.35-.94,5.6-.94,6.21,0,9.32,2.69,9.32,8.06,0,6.28-3.59,9.41-10.76,9.41-2.69,0-6.77-.32-12.23-.94-5.47-.63-9.64-.94-12.5-.94-3.05,0-7.48.32-13.31.94-5.83.62-10.26.94-13.31.94-7.53,0-11.29-3.13-11.29-9.41,0-5.37,2.86-8.06,8.6-8.06.71,0,2.51.18,5.38.54,1.07.36,2.51.54,4.3.54,3.05,0,4.97-1.52,5.78-4.57.81-3.05,1.3-10.66,1.48-22.86v-34.15c0-12.37-.94-21.37-2.81-27.02-1.87-5.65-5.41-10.08-10.58-13.31-5.18-3.23-11.07-4.84-17.67-4.84-12.67,0-21.51,4.39-26.51,13.18-3.93,6.99-5.89,19.18-5.89,36.57v19.09c0,16.85.4,27.38,1.21,31.59.81,4.22,2.91,6.32,6.32,6.32,1.08,0,2.64-.17,4.71-.54,2.06-.36,3.63-.54,4.71-.54,2.51,0,4.62.84,6.32,2.52,1.7,1.68,2.55,3.75,2.55,6.22,0,5.83-4.22,8.74-12.64,8.74-2.69,0-6.68-.36-11.96-1.07-5.29-.72-9.28-1.07-11.97-1.07-3.76,0-7.89.36-12.37,1.07-4.48.72-8.43,1.07-11.83,1.07-7.35,0-11.02-3.04-11.02-9.14,0-5.55,2.69-8.33,8.06-8.33,1.97,0,3.5.25,4.57.75,2.51.76,4.39,1.13,5.65,1.13,4.3,0,6.54-4.59,6.72-13.78l.81-12.71v-39.18c0-15.67-2.11-26.57-6.32-32.7-4.22-6.12-11.7-9.19-22.45-9.19-11.83,0-20.88,4.32-27.16,12.97-5.2,7.03-7.79,19.28-7.79,36.75v35.94c0,7.21.08,11.44.27,12.7.71,6.12,2.68,9.18,5.92,9.18.89,0,2.77-.5,5.64-1.5.36,0,.89-.13,1.62-.38h1.88c6.99,0,10.49,2.96,10.49,8.87s-4.03,8.6-12.1,8.6c-3.05,0-6.82-.27-11.29-.81-6.09-.72-11.29-1.07-15.59-1.07-2.15,0-6.09.27-11.83.81-7.71.72-12.37,1.07-13.98,1.07-7.17,0-10.76-3.04-10.76-9.14,0-5.55,3.47-8.33,10.41-8.33h1.64c.73.18,1.28.27,1.64.27l6.85,1.34c.18.18.55.27,1.1.27,4.93,0,7.57-4.39,7.94-13.17v-56.46c0-15.24-.41-24.74-1.21-28.5-.81-3.76-3-5.64-6.59-5.64-.72,0-3.23.45-7.53,1.34-1.79.36-3.23.54-4.3.54-6.64,0-9.95-2.86-9.95-8.6,0-6.09,3.67-9.14,11.03-9.14,1.97,0,4.66.18,8.07.54,3.4.36,6.36.54,8.87.54h4.84l6.45-1.07h.81c4.3,0,6.45,2.6,6.45,7.79Z"/>
      <path d="M883.89,186.06c-14.7,0-23.75-6.36-27.16-19.09-9.14,13.44-23.48,20.16-43.02,20.16-14.52,0-26.13-3.58-34.82-10.75-8.69-7.17-13.04-16.76-13.04-28.77,0-14.88,6.36-25.81,19.09-32.8,4.84-2.69,9.01-4.44,12.5-5.24s10.53-1.84,21.11-3.09c15.06-1.61,24.87-3.85,29.44-6.72,4.57-2.86,6.85-8.15,6.85-15.86s-2.55-13.13-7.66-17.34c-5.11-4.21-12.23-6.32-21.37-6.32-8.07,0-15.59,2.25-22.58,6.73-2.69,1.79-4.04,3.67-4.04,5.64,0,.72.81,1.62,2.42,2.69,2.51,1.79,3.76,4.84,3.76,9.14,0,3.59-1.3,6.55-3.9,8.87-2.6,2.33-5.87,3.49-9.82,3.49-4.66,0-8.56-1.61-11.69-4.84-3.14-3.23-4.71-7.17-4.71-11.83,0-10.04,4.97-18.64,14.92-25.81,9.95-7.16,22-10.75,36.16-10.75,32.63,0,48.94,15.65,48.94,46.95v54.2c0,8.59.18,13.69.54,15.29,1.08,6.26,4.12,9.39,9.14,9.39,6.27,0,9.41-5.7,9.41-17.09v-13.08c0-5.69,2.74-8.54,8.2-8.54,5.83,0,8.74,4.3,8.74,12.91v16.67c-.36,17.21-9.5,25.81-27.43,25.81ZM854.04,132.55v-19.09c-3.93,3.58-8.08,6.09-12.45,7.53-4.38,1.44-12.18,2.69-23.43,3.76-20.36,1.97-30.53,9.5-30.53,22.59,0,6.81,2.46,12.19,7.39,16.13,4.93,3.94,11.6,5.92,20.03,5.92,12.01,0,21.46-3.27,28.36-9.82,6.9-6.54,10.44-15.55,10.62-27.02Z"/>
      <path d="M987.86,145.46v-17.21c.17-7.35,3.4-11.02,9.68-11.02s9.41,4.13,9.41,12.37c0,19.54-2.5,33.16-7.48,40.87-6.76,10.4-17.89,15.59-33.38,15.59-14.24,0-24.39-4.57-30.44-13.71-4.46-6.63-6.67-17.93-6.67-33.88v-64.53c0-3.76-1.75-5.65-5.23-5.65h-8.8c-2.93,0-5.36-.94-7.29-2.82-1.92-1.88-2.88-4.17-2.88-6.86,0-2.51.94-4.75,2.82-6.72,1.88-1.97,3.99-2.96,6.32-2.96h10.48c3.05,0,4.57-1.7,4.57-5.11v-27.69c0-6.81,3.49-10.22,10.48-10.22,6.45,0,9.68,3.41,9.68,10.22v28.77c0,2.69,1.62,4.04,4.84,4.04h29.3c6.81,0,10.22,3.14,10.22,9.41,0,6.63-3.67,9.95-11.02,9.95h-29.58c-2.51,0-3.76,1.88-3.76,5.65v66.14c0,18.82,6.27,28.23,18.81,28.23s19.36-7.62,19.91-22.85Z"/>
      <path d="M1141.55,103.51c0,6.82-.45,10.98-1.34,12.5-.9,1.53-3.5,2.28-7.8,2.28h-85.5c-2.33,0-3.86.32-4.57.94-.72.63-1.08,1.66-1.08,3.09,0,13.45,4.04,24.65,12.1,33.61,8.07,8.97,18.1,13.45,30.11,13.45,7.88,0,15.1-2.15,21.65-6.45,6.54-4.3,10.8-9.77,12.77-16.4l2.42-7.79c1.25-4.3,4.21-6.45,8.87-6.45,6.63,0,9.95,3.41,9.95,10.22,0,11.65-5.92,22-17.75,31.06-11.83,9.05-25.27,13.57-40.33,13.57-18.82,0-33.79-6.32-44.9-18.95-11.12-12.64-16.67-29.62-16.67-50.95s5.92-39.61,17.75-53.24,27.25-20.44,46.25-20.44c16.85,0,30.74,5.65,41.68,16.94,10.93,11.29,16.4,25.64,16.4,43.02ZM1043.94,96.52c0,2.52,1.97,3.76,5.92,3.76h64.26c3.76,0,5.65-1.25,5.65-3.76,0-9.5-3.59-17.75-10.76-24.74s-15.59-10.48-25.27-10.48-19.18,3.63-27.43,10.89c-8.25,7.26-12.37,15.37-12.37,24.33Z"/>
    </g>
  </g>
</svg>